<?xml version="1.0" encoding="UTF-8"?>
<svg width="264px" height="55px" viewBox="0 0 264 55" version="1.1" xmlns="http://www.w3.org/2000/svg" xmlns:xlink="http://www.w3.org/1999/xlink">
    <!-- Generator: Sketch 51 (57462) - http://www.bohemiancoding.com/sketch -->
    <title>Logo</title>
    <desc>Created with Sketch.</desc>
    <defs>
        <linearGradient x1="50%" y1="88.5297245%" x2="50%" y2="3.03576608e-15%" id="linearGradient-1">
            <stop stop-color="#F5864A" offset="0%"></stop>
            <stop stop-color="#FCB859" offset="100%"></stop>
        </linearGradient>
    </defs>
    <g id="Page-1" stroke="none" stroke-width="1" fill="none" fill-rule="evenodd">
        <g id="A4" transform="translate(-289.000000, -270.000000)">
            <g id="Logo" transform="translate(289.000000, 270.000000)">
                <path d="M67.744,11.016 L90.832,11.016 L90.832,17.928 L75.232,17.928 L75.232,24.264 L89.968,24.264 L89.968,31.176 L75.232,31.176 L75.232,38.088 L91.696,38.088 L91.696,45 L67.744,45 L67.744,11.016 Z M94.336,21.672 L102.112,21.672 L108.016,37.512 L108.112,37.512 L113.584,21.672 L120.832,21.672 L111.616,45 L103.984,45 L94.336,21.672 Z M145.552,40.968 C144.399994,42.4400074 142.944009,43.575996 141.184,44.376 C139.423991,45.176004 137.600009,45.576 135.712,45.576 C133.919991,45.576 132.232008,45.2880029 130.648,44.712 C129.063992,44.1359971 127.688006,43.3120054 126.52,42.24 C125.351994,41.1679946 124.432003,39.8800075 123.76,38.376 C123.087997,36.8719925 122.752,35.1920093 122.752,33.336 C122.752,31.4799907 123.087997,29.8000075 123.76,28.296 C124.432003,26.7919925 125.351994,25.5040054 126.52,24.432 C127.688006,23.3599946 129.063992,22.5360029 130.648,21.96 C132.232008,21.3839971 133.919991,21.096 135.712,21.096 C137.376008,21.096 138.887993,21.3839971 140.248,21.96 C141.608007,22.5360029 142.759995,23.3599946 143.704,24.432 C144.648005,25.5040054 145.375997,26.7919925 145.888,28.296 C146.400003,29.8000075 146.656,31.4799907 146.656,33.336 L146.656,35.592 L129.952,35.592 C130.240001,36.9680069 130.863995,38.0639959 131.824,38.88 C132.784005,39.6960041 133.967993,40.104 135.376,40.104 C136.560006,40.104 137.559996,39.8400026 138.376,39.312 C139.192004,38.7839974 139.903997,38.1040042 140.512,37.272 L145.552,40.968 Z M139.456,30.696 C139.488,29.4799939 139.088004,28.4400043 138.256,27.576 C137.423996,26.7119957 136.352007,26.28 135.04,26.28 C134.239996,26.28 133.536003,26.4079987 132.928,26.664 C132.319997,26.9200013 131.800002,27.247998 131.368,27.648 C130.935998,28.048002 130.600001,28.5119974 130.36,29.04 C130.119999,29.5680026 129.984,30.1199971 129.952,30.696 L139.456,30.696 Z M151.024,21.672 L157.936,21.672 L157.936,24.84 L158.032,24.84 C158.256001,24.3919978 158.575998,23.9440022 158.992,23.496 C159.408002,23.0479978 159.903997,22.6480018 160.48,22.296 C161.056003,21.9439982 161.711996,21.6560011 162.448,21.432 C163.184004,21.2079989 163.983996,21.096 164.848,21.096 C166.672009,21.096 168.143994,21.3759972 169.264,21.936 C170.384006,22.4960028 171.255997,23.271995 171.88,24.264 C172.504003,25.256005 172.927999,26.4239933 173.152,27.768 C173.376001,29.1120067 173.488,30.5679922 173.488,32.136 L173.488,45 L166.288,45 L166.288,33.576 C166.288,32.9039966 166.264,32.2080036 166.216,31.488 C166.168,30.7679964 166.024001,30.104003 165.784,29.496 C165.543999,28.887997 165.176002,28.3920019 164.68,28.008 C164.183998,27.6239981 163.472005,27.432 162.544,27.432 C161.615995,27.432 160.864003,27.5999983 160.288,27.936 C159.711997,28.2720017 159.272002,28.7199972 158.968,29.28 C158.663998,29.8400028 158.464,30.4719965 158.368,31.176 C158.272,31.8800035 158.224,32.6159962 158.224,33.384 L158.224,45 L151.024,45 L151.024,21.672 Z M194.996765,27.432 L188.128,27.432 L188.128,35.208 C188.128,35.8480032 188.16,36.4319974 188.224,36.96 C188.288,37.4880026 188.431999,37.9439981 188.656,38.328 C188.880001,38.7120019 189.223998,39.007999 189.688,39.216 C190.152002,39.424001 190.767996,39.528 191.536,39.528 C191.920002,39.528 192.423997,39.4880004 193.048,39.408 C193.672003,39.3279996 194.143998,39.1440014 194.464,38.856 L194.464,44.856 C193.663996,45.1440014 192.832004,45.3359995 191.968,45.432 C191.103996,45.5280005 190.256004,45.576 189.424,45.576 C188.207994,45.576 187.088005,45.4480013 186.064,45.192 C185.039995,44.9359987 184.144004,44.5280028 183.376,43.968 C182.607996,43.4079972 182.008002,42.6800045 181.576,41.784 C181.143998,40.8879955 180.928,39.8000064 180.928,38.52 L180.928,27.432 L176.32,27.432 L176.32,21.672 L180.928,21.672 L180.928,14.76 L188.128,14.76 L188.128,21.672 L194.996765,21.672 L194.996765,27.432 Z M200.608,27.432 L195.000488,27.432 L195.000488,21.672 L200.608,21.672 L200.608,17.544 C200.608,16.2639936 200.719999,15.0560057 200.944,13.92 C201.168001,12.7839943 201.599997,11.7840043 202.24,10.92 C202.880003,10.0559957 203.799994,9.37600248 205,8.88 C206.200006,8.38399752 207.77599,8.136 209.728,8.136 C210.464004,8.136 211.183996,8.16799968 211.888,8.232 C212.592004,8.29600032 213.279997,8.4079992 213.952,8.568 L213.616,14.664 C213.199998,14.5039992 212.816002,14.3840004 212.464,14.304 C212.111998,14.2239996 211.712002,14.184 211.264,14.184 C210.111994,14.184 209.248003,14.4319975 208.672,14.928 C208.095997,15.4240025 207.808,16.4399923 207.808,17.976 L207.808,21.672 L213.136,21.672 L213.136,27.432 L207.808,27.432 L207.808,45 L200.608,45 L200.608,27.432 Z M238.336,45 L231.424,45 L231.424,41.832 L231.328,41.832 C231.071999,42.2800022 230.744002,42.7279978 230.344,43.176 C229.943998,43.6240022 229.456003,44.0239982 228.88,44.376 C228.303997,44.7280018 227.648004,45.0159989 226.912,45.24 C226.175996,45.4640011 225.376004,45.576 224.512,45.576 C222.687991,45.576 221.208006,45.2960028 220.072,44.736 C218.935994,44.1759972 218.056003,43.400005 217.432,42.408 C216.807997,41.415995 216.392001,40.2480067 216.184,38.904 C215.975999,37.5599933 215.872,36.1040078 215.872,34.536 L215.872,21.672 L223.072,21.672 L223.072,33.096 C223.072,33.7680034 223.096,34.4639964 223.144,35.184 C223.192,35.9040036 223.335999,36.567997 223.576,37.176 C223.816001,37.784003 224.183998,38.2799981 224.68,38.664 C225.176002,39.0480019 225.887995,39.24 226.816,39.24 C227.744005,39.24 228.495997,39.0720017 229.072,38.736 C229.648003,38.3999983 230.087998,37.9520028 230.392,37.392 C230.696002,36.8319972 230.896,36.2000035 230.992,35.496 C231.088,34.7919965 231.136,34.0560038 231.136,33.288 L231.136,21.672 L238.336,21.672 L238.336,45 Z M243.52,8.712 L250.72,8.712 L250.72,45 L243.52,45 L243.52,8.712 Z M256,8.712 L263.2,8.712 L263.2,45 L256,45 L256,8.712 Z" id="Eventfull" fill="#466085"></path>
                <g id="Icon">
                    <path d="M25.232996,22.1241865 L16.5202976,13.4123611 C15.4456151,12.3368056 15.4456151,10.5951389 16.5202976,9.51958333 L25.232996,0.806011905 C26.3076786,-0.268670635 28.0502183,-0.268670635 29.1249008,0.806011905 L37.8375992,9.51958333 C38.9122817,10.5933929 38.9122817,12.3350595 37.8375992,13.4106151 L29.1249008,22.1241865 C28.0502183,23.198869 26.3076786,23.198869 25.232996,22.1241865" id="Fill-1-Copy" fill="#FCB95A"></path>
                    <path d="M45.0687897,37.619127 C44.0849008,38.6030159 42.4890278,38.6038889 41.5042659,37.62 L37.7302183,33.8450794 C36.5368056,32.6525397 34.6022024,32.6525397 33.4087897,33.8450794 C32.215377,35.0384921 32.215377,36.9730952 33.4087897,38.1665079 L37.1810913,41.9396825 C38.1667262,42.9244444 38.1649802,44.5220635 37.1784722,45.5059524 L35.8663294,46.8146032 L29.1266468,53.5534127 C28.0519643,54.6289683 26.3085516,54.6289683 25.232996,53.5534127 L17.1837897,45.5050794 C16.1999008,44.5211905 16.1999008,42.9261905 17.1829167,41.9423016 L20.9534722,38.1665079 C22.1451389,36.9730952 22.1451389,35.0393651 20.9517262,33.8468254 C19.7583135,32.6525397 17.8228373,32.6534127 16.6294246,33.8476984 L12.8632341,37.619127 C11.8793452,38.6030159 10.2834722,38.6030159 9.29871032,37.62 L0.806011905,29.1273016 C-0.268670635,28.051746 -0.268670635,26.3083333 0.806011905,25.2327778 L9.51871032,16.5209524 C10.5942659,15.4453968 12.3376786,15.4453968 13.4123611,16.5209524 L25.3290278,28.437619 C26.3513294,29.4599206 28.0083135,29.4599206 29.0306151,28.437619 L40.9472817,16.5209524 C42.0228373,15.4453968 43.76625,15.4453968 44.8409325,16.5209524 L53.553631,25.2327778 C54.6274405,26.3074603 54.6274405,28.0534921 53.553631,29.1273016 L45.0687897,37.619127 Z" id="Fill-3-Copy" fill="url(#linearGradient-1)"></path>
                </g>
            </g>
        </g>
    </g>
</svg>